<mxfile host="Electron" agent="Mozilla/5.0 (Windows NT 10.0; Win64; x64) AppleWebKit/537.36 (KHTML, like Gecko) draw.io/26.1.1 Chrome/132.0.6834.210 Electron/34.3.3 Safari/537.36" version="26.1.1">
  <diagram name="Страница 1" id="PIPlhKZk1r-2x6fM5tUB">
    <mxGraphModel dx="4232" dy="2674" grid="1" gridSize="10" guides="1" tooltips="1" connect="1" arrows="1" fold="1" page="1" pageScale="1" pageWidth="827" pageHeight="1169" math="0" shadow="0">
      <root>
        <mxCell id="0" />
        <mxCell id="1" parent="0" />
        <mxCell id="V2mrgXFyR8KAxn0kKlGp-10" style="edgeStyle=orthogonalEdgeStyle;rounded=0;orthogonalLoop=1;jettySize=auto;html=1;exitX=0.25;exitY=1;exitDx=0;exitDy=0;entryX=0;entryY=0.5;entryDx=0;entryDy=0;" edge="1" parent="1" source="2qpmQN4yFpRF_TmIUa1L-1" target="V2mrgXFyR8KAxn0kKlGp-3">
          <mxGeometry relative="1" as="geometry">
            <Array as="points">
              <mxPoint x="431" y="950" />
              <mxPoint x="-1210" y="950" />
              <mxPoint x="-1210" y="-122" />
            </Array>
          </mxGeometry>
        </mxCell>
        <mxCell id="2qpmQN4yFpRF_TmIUa1L-1" value="" style="rounded=1;whiteSpace=wrap;html=1;fillColor=#dae8fc;strokeColor=#6c8ebf;" parent="1" vertex="1">
          <mxGeometry x="326" y="640" width="420" height="290" as="geometry" />
        </mxCell>
        <mxCell id="NHk5KSPm33zJ3o6PW0oc-1" style="edgeStyle=orthogonalEdgeStyle;rounded=0;orthogonalLoop=1;jettySize=auto;html=1;entryX=0.5;entryY=0;entryDx=0;entryDy=0;" parent="1" source="NHk5KSPm33zJ3o6PW0oc-5" target="NHk5KSPm33zJ3o6PW0oc-22" edge="1">
          <mxGeometry relative="1" as="geometry">
            <Array as="points">
              <mxPoint x="120" y="105" />
              <mxPoint x="120" y="220" />
              <mxPoint x="210" y="220" />
            </Array>
          </mxGeometry>
        </mxCell>
        <mxCell id="NHk5KSPm33zJ3o6PW0oc-2" value="Просматривает ставки по &lt;br&gt;депозитам, подает заявку" style="edgeLabel;html=1;align=center;verticalAlign=middle;resizable=0;points=[];" parent="NHk5KSPm33zJ3o6PW0oc-1" vertex="1" connectable="0">
          <mxGeometry x="-0.2364" relative="1" as="geometry">
            <mxPoint y="44" as="offset" />
          </mxGeometry>
        </mxCell>
        <mxCell id="NHk5KSPm33zJ3o6PW0oc-3" style="edgeStyle=orthogonalEdgeStyle;rounded=0;orthogonalLoop=1;jettySize=auto;html=1;entryX=0;entryY=0.5;entryDx=0;entryDy=0;" parent="1" source="NHk5KSPm33zJ3o6PW0oc-5" target="NHk5KSPm33zJ3o6PW0oc-25" edge="1">
          <mxGeometry relative="1" as="geometry">
            <Array as="points">
              <mxPoint x="-23" y="40" />
              <mxPoint x="360" y="40" />
              <mxPoint x="360" y="180" />
            </Array>
          </mxGeometry>
        </mxCell>
        <mxCell id="NHk5KSPm33zJ3o6PW0oc-4" value="Просматривает ставки по депозитам, подает заявку" style="edgeLabel;html=1;align=center;verticalAlign=middle;resizable=0;points=[];" parent="NHk5KSPm33zJ3o6PW0oc-3" vertex="1" connectable="0">
          <mxGeometry x="0.0846" y="2" relative="1" as="geometry">
            <mxPoint x="-71" as="offset" />
          </mxGeometry>
        </mxCell>
        <mxCell id="NHk5KSPm33zJ3o6PW0oc-5" value="Клиент" style="sketch=0;pointerEvents=1;shadow=0;dashed=0;html=1;strokeColor=none;labelPosition=center;verticalLabelPosition=bottom;verticalAlign=top;outlineConnect=0;align=center;shape=mxgraph.office.users.user;fillColor=#2072B8;" parent="1" vertex="1">
          <mxGeometry x="-46" y="80" width="46" height="50" as="geometry" />
        </mxCell>
        <mxCell id="NHk5KSPm33zJ3o6PW0oc-8" style="edgeStyle=orthogonalEdgeStyle;rounded=0;orthogonalLoop=1;jettySize=auto;html=1;entryX=-0.002;entryY=0.484;entryDx=0;entryDy=0;entryPerimeter=0;" parent="1" source="NHk5KSPm33zJ3o6PW0oc-10" target="NHk5KSPm33zJ3o6PW0oc-27" edge="1">
          <mxGeometry relative="1" as="geometry">
            <Array as="points">
              <mxPoint x="-1080" y="101" />
              <mxPoint x="-1080" y="101" />
            </Array>
          </mxGeometry>
        </mxCell>
        <mxCell id="NHk5KSPm33zJ3o6PW0oc-9" value="Просматривает заявки, формирует&lt;div&gt;&amp;nbsp;персональные условия, &lt;br&gt;связывается с клиентом&amp;nbsp;&lt;/div&gt;&lt;div&gt;с персональным предложением&lt;/div&gt;" style="edgeLabel;html=1;align=center;verticalAlign=middle;resizable=0;points=[];" parent="NHk5KSPm33zJ3o6PW0oc-8" vertex="1" connectable="0">
          <mxGeometry x="-0.197" y="-1" relative="1" as="geometry">
            <mxPoint x="16" y="2" as="offset" />
          </mxGeometry>
        </mxCell>
        <mxCell id="NHk5KSPm33zJ3o6PW0oc-10" value="Менеджер&lt;br&gt;колл-центра" style="sketch=0;pointerEvents=1;shadow=0;dashed=0;html=1;strokeColor=none;labelPosition=center;verticalLabelPosition=bottom;verticalAlign=top;outlineConnect=0;align=center;shape=mxgraph.office.users.user;fillColor=#2072B8;" parent="1" vertex="1">
          <mxGeometry x="-1180" y="70.06" width="46" height="50" as="geometry" />
        </mxCell>
        <mxCell id="NHk5KSPm33zJ3o6PW0oc-72" style="edgeStyle=orthogonalEdgeStyle;rounded=0;orthogonalLoop=1;jettySize=auto;html=1;fontSize=18;entryX=1;entryY=0.5;entryDx=0;entryDy=0;" parent="1" source="NHk5KSPm33zJ3o6PW0oc-13" target="NHk5KSPm33zJ3o6PW0oc-44" edge="1">
          <mxGeometry relative="1" as="geometry">
            <mxPoint x="953" y="620" as="targetPoint" />
            <Array as="points">
              <mxPoint x="758" y="400" />
            </Array>
          </mxGeometry>
        </mxCell>
        <mxCell id="NHk5KSPm33zJ3o6PW0oc-81" value="Принимает решение по депозитам" style="edgeLabel;html=1;align=center;verticalAlign=middle;resizable=0;points=[];fontSize=12;" parent="NHk5KSPm33zJ3o6PW0oc-72" vertex="1" connectable="0">
          <mxGeometry x="0.1611" y="-2" relative="1" as="geometry">
            <mxPoint x="-16" y="-16" as="offset" />
          </mxGeometry>
        </mxCell>
        <mxCell id="NHk5KSPm33zJ3o6PW0oc-13" value="Менеджер&lt;br&gt;бэк-офиса" style="sketch=0;pointerEvents=1;shadow=0;dashed=0;html=1;strokeColor=none;labelPosition=center;verticalLabelPosition=bottom;verticalAlign=top;outlineConnect=0;align=center;shape=mxgraph.office.users.user;fillColor=#2072B8;" parent="1" vertex="1">
          <mxGeometry x="735" y="220" width="46" height="50" as="geometry" />
        </mxCell>
        <mxCell id="NHk5KSPm33zJ3o6PW0oc-14" style="edgeStyle=orthogonalEdgeStyle;rounded=0;orthogonalLoop=1;jettySize=auto;html=1;entryX=0.5;entryY=1;entryDx=0;entryDy=0;exitX=0.5;exitY=0;exitDx=0;exitDy=0;" parent="1" source="2qpmQN4yFpRF_TmIUa1L-10" target="NHk5KSPm33zJ3o6PW0oc-19" edge="1">
          <mxGeometry relative="1" as="geometry">
            <mxPoint x="180" y="530" as="sourcePoint" />
            <Array as="points">
              <mxPoint x="380" y="670" />
              <mxPoint x="380" y="590" />
              <mxPoint x="-23" y="590" />
            </Array>
          </mxGeometry>
        </mxCell>
        <mxCell id="NHk5KSPm33zJ3o6PW0oc-15" value="Передает оповещение клиенту" style="edgeLabel;html=1;align=center;verticalAlign=middle;resizable=0;points=[];" parent="NHk5KSPm33zJ3o6PW0oc-14" vertex="1" connectable="0">
          <mxGeometry x="-0.2526" y="1" relative="1" as="geometry">
            <mxPoint x="-89" y="-201" as="offset" />
          </mxGeometry>
        </mxCell>
        <mxCell id="2qpmQN4yFpRF_TmIUa1L-8" value="Отправка СМС сообщений клиенту&amp;nbsp;" style="edgeLabel;html=1;align=center;verticalAlign=middle;resizable=0;points=[];" parent="NHk5KSPm33zJ3o6PW0oc-14" vertex="1" connectable="0">
          <mxGeometry x="0.0703" relative="1" as="geometry">
            <mxPoint as="offset" />
          </mxGeometry>
        </mxCell>
        <mxCell id="NHk5KSPm33zJ3o6PW0oc-16" value="" style="rounded=1;whiteSpace=wrap;html=1;fillColor=#dae8fc;strokeColor=#6c8ebf;" parent="1" vertex="1">
          <mxGeometry x="-860" y="575" width="410" height="360" as="geometry" />
        </mxCell>
        <mxCell id="NHk5KSPm33zJ3o6PW0oc-17" style="edgeStyle=orthogonalEdgeStyle;rounded=0;orthogonalLoop=1;jettySize=auto;html=1;" parent="1" source="NHk5KSPm33zJ3o6PW0oc-19" target="NHk5KSPm33zJ3o6PW0oc-5" edge="1">
          <mxGeometry relative="1" as="geometry">
            <mxPoint y="350" as="targetPoint" />
          </mxGeometry>
        </mxCell>
        <mxCell id="NHk5KSPm33zJ3o6PW0oc-18" value="Передает оповещение клиенту" style="edgeLabel;html=1;align=center;verticalAlign=middle;resizable=0;points=[];" parent="NHk5KSPm33zJ3o6PW0oc-17" vertex="1" connectable="0">
          <mxGeometry x="-0.3067" y="-1" relative="1" as="geometry">
            <mxPoint x="-1" y="-8" as="offset" />
          </mxGeometry>
        </mxCell>
        <mxCell id="NHk5KSPm33zJ3o6PW0oc-19" value="СМС-провайдер" style="rounded=1;whiteSpace=wrap;html=1;fillColor=#f5f5f5;fontColor=#333333;strokeColor=#666666;" parent="1" vertex="1">
          <mxGeometry x="-83" y="280" width="120" height="60" as="geometry" />
        </mxCell>
        <mxCell id="NHk5KSPm33zJ3o6PW0oc-20" style="edgeStyle=orthogonalEdgeStyle;rounded=0;orthogonalLoop=1;jettySize=auto;html=1;entryX=0.25;entryY=0;entryDx=0;entryDy=0;exitX=1;exitY=0.5;exitDx=0;exitDy=0;" parent="1" source="NHk5KSPm33zJ3o6PW0oc-22" target="NHk5KSPm33zJ3o6PW0oc-44" edge="1">
          <mxGeometry relative="1" as="geometry" />
        </mxCell>
        <mxCell id="NHk5KSPm33zJ3o6PW0oc-21" value="Передает данные по заявке" style="edgeLabel;html=1;align=center;verticalAlign=middle;resizable=0;points=[];" parent="NHk5KSPm33zJ3o6PW0oc-20" vertex="1" connectable="0">
          <mxGeometry x="0.0343" relative="1" as="geometry">
            <mxPoint as="offset" />
          </mxGeometry>
        </mxCell>
        <mxCell id="NHk5KSPm33zJ3o6PW0oc-22" value="PHP/React.js" style="rounded=1;whiteSpace=wrap;html=1;fillColor=#dae8fc;strokeColor=#6c8ebf;" parent="1" vertex="1">
          <mxGeometry x="95" y="270" width="230" height="90" as="geometry" />
        </mxCell>
        <mxCell id="NHk5KSPm33zJ3o6PW0oc-23" style="edgeStyle=orthogonalEdgeStyle;rounded=0;orthogonalLoop=1;jettySize=auto;html=1;" parent="1" source="NHk5KSPm33zJ3o6PW0oc-25" target="NHk5KSPm33zJ3o6PW0oc-44" edge="1">
          <mxGeometry relative="1" as="geometry" />
        </mxCell>
        <mxCell id="NHk5KSPm33zJ3o6PW0oc-24" value="Передает данные по заявке" style="edgeLabel;html=1;align=center;verticalAlign=middle;resizable=0;points=[];" parent="NHk5KSPm33zJ3o6PW0oc-23" vertex="1" connectable="0">
          <mxGeometry x="-0.5563" y="-2" relative="1" as="geometry">
            <mxPoint as="offset" />
          </mxGeometry>
        </mxCell>
        <mxCell id="NHk5KSPm33zJ3o6PW0oc-25" value="" style="rounded=1;whiteSpace=wrap;html=1;fillColor=#dae8fc;strokeColor=#6c8ebf;" parent="1" vertex="1">
          <mxGeometry x="390" y="120" width="290" height="120" as="geometry" />
        </mxCell>
        <mxCell id="NHk5KSPm33zJ3o6PW0oc-26" style="edgeStyle=orthogonalEdgeStyle;rounded=0;orthogonalLoop=1;jettySize=auto;html=1;exitX=1;exitY=0.5;exitDx=0;exitDy=0;endArrow=none;startFill=1;startArrow=classic;" parent="1" source="V2mrgXFyR8KAxn0kKlGp-6" target="NHk5KSPm33zJ3o6PW0oc-5" edge="1">
          <mxGeometry relative="1" as="geometry" />
        </mxCell>
        <mxCell id="V2mrgXFyR8KAxn0kKlGp-13" value="Звонок" style="edgeLabel;html=1;align=center;verticalAlign=middle;resizable=0;points=[];" vertex="1" connectable="0" parent="NHk5KSPm33zJ3o6PW0oc-26">
          <mxGeometry x="-0.3445" y="3" relative="1" as="geometry">
            <mxPoint as="offset" />
          </mxGeometry>
        </mxCell>
        <mxCell id="NHk5KSPm33zJ3o6PW0oc-75" style="edgeStyle=orthogonalEdgeStyle;rounded=0;orthogonalLoop=1;jettySize=auto;html=1;fontSize=18;entryX=0.5;entryY=0;entryDx=0;entryDy=0;startArrow=classic;startFill=1;" parent="1" source="NHk5KSPm33zJ3o6PW0oc-27" target="NHk5KSPm33zJ3o6PW0oc-16" edge="1">
          <mxGeometry relative="1" as="geometry">
            <mxPoint x="-390" y="600" as="targetPoint" />
            <Array as="points">
              <mxPoint x="-677" y="400" />
              <mxPoint x="-655" y="400" />
            </Array>
          </mxGeometry>
        </mxCell>
        <mxCell id="V2mrgXFyR8KAxn0kKlGp-9" style="edgeStyle=orthogonalEdgeStyle;rounded=0;orthogonalLoop=1;jettySize=auto;html=1;exitX=1;exitY=0.5;exitDx=0;exitDy=0;" edge="1" parent="1" source="NHk5KSPm33zJ3o6PW0oc-27" target="NHk5KSPm33zJ3o6PW0oc-5">
          <mxGeometry relative="1" as="geometry" />
        </mxCell>
        <mxCell id="NHk5KSPm33zJ3o6PW0oc-27" value="" style="rounded=1;whiteSpace=wrap;html=1;fillColor=#dae8fc;strokeColor=#6c8ebf;" parent="1" vertex="1">
          <mxGeometry x="-814" y="7.5600000000000005" width="274" height="192.5" as="geometry" />
        </mxCell>
        <mxCell id="NHk5KSPm33zJ3o6PW0oc-29" value="MS SQL" style="shape=cylinder3;whiteSpace=wrap;html=1;boundedLbl=1;backgroundOutline=1;size=15;" parent="1" vertex="1">
          <mxGeometry x="600" y="150" width="60" height="80" as="geometry" />
        </mxCell>
        <mxCell id="NHk5KSPm33zJ3o6PW0oc-32" value="Интернет-банк" style="text;html=1;strokeColor=none;fillColor=none;align=center;verticalAlign=middle;whiteSpace=wrap;rounded=0;fontStyle=1;fontSize=16;" parent="1" vertex="1">
          <mxGeometry x="455" y="120" width="140" height="30" as="geometry" />
        </mxCell>
        <mxCell id="NHk5KSPm33zJ3o6PW0oc-34" style="edgeStyle=orthogonalEdgeStyle;rounded=0;orthogonalLoop=1;jettySize=auto;html=1;exitX=1;exitY=0.5;exitDx=0;exitDy=0;entryX=0;entryY=0.5;entryDx=0;entryDy=0;entryPerimeter=0;fontSize=16;" parent="1" source="NHk5KSPm33zJ3o6PW0oc-33" target="NHk5KSPm33zJ3o6PW0oc-29" edge="1">
          <mxGeometry relative="1" as="geometry" />
        </mxCell>
        <mxCell id="NHk5KSPm33zJ3o6PW0oc-33" value="&lt;font style=&quot;font-size: 12px;&quot;&gt;ASP.Net MVC&lt;/font&gt;" style="rounded=0;whiteSpace=wrap;html=1;fontSize=16;" parent="1" vertex="1">
          <mxGeometry x="410" y="160" width="120" height="60" as="geometry" />
        </mxCell>
        <mxCell id="NHk5KSPm33zJ3o6PW0oc-35" value="Сайт банка" style="text;html=1;strokeColor=none;fillColor=none;align=center;verticalAlign=middle;whiteSpace=wrap;rounded=0;fontStyle=1;fontSize=16;" parent="1" vertex="1">
          <mxGeometry x="140" y="280" width="140" height="30" as="geometry" />
        </mxCell>
        <mxCell id="NHk5KSPm33zJ3o6PW0oc-40" style="edgeStyle=orthogonalEdgeStyle;rounded=0;orthogonalLoop=1;jettySize=auto;html=1;entryX=-0.048;entryY=0.581;entryDx=0;entryDy=0;entryPerimeter=0;fontSize=16;" parent="1" target="V2mrgXFyR8KAxn0kKlGp-1" edge="1">
          <mxGeometry relative="1" as="geometry">
            <mxPoint x="-720" y="80.06" as="sourcePoint" />
            <Array as="points">
              <mxPoint x="-720" y="120.06" />
              <mxPoint x="-720" y="44.06" />
            </Array>
          </mxGeometry>
        </mxCell>
        <mxCell id="NHk5KSPm33zJ3o6PW0oc-38" value="&lt;font style=&quot;font-size: 12px;&quot;&gt;React.js/Java Spring Boot&lt;/font&gt;" style="rounded=0;whiteSpace=wrap;html=1;fontSize=16;" parent="1" vertex="1">
          <mxGeometry x="-800" y="79.56" width="120" height="80" as="geometry" />
        </mxCell>
        <mxCell id="NHk5KSPm33zJ3o6PW0oc-39" value="&lt;font style=&quot;font-size: 12px;&quot;&gt;PostgreSQL&lt;/font&gt;" style="shape=cylinder3;whiteSpace=wrap;html=1;boundedLbl=1;backgroundOutline=1;size=15;fontSize=16;" parent="1" vertex="1">
          <mxGeometry x="-615" y="120.06" width="70" height="67.5" as="geometry" />
        </mxCell>
        <mxCell id="NHk5KSPm33zJ3o6PW0oc-41" value="Колл-центр" style="text;html=1;strokeColor=none;fillColor=none;align=center;verticalAlign=middle;whiteSpace=wrap;rounded=0;fontStyle=1;fontSize=16;" parent="1" vertex="1">
          <mxGeometry x="-750" y="7.5600000000000005" width="140" height="30" as="geometry" />
        </mxCell>
        <mxCell id="NHk5KSPm33zJ3o6PW0oc-70" style="edgeStyle=orthogonalEdgeStyle;rounded=0;orthogonalLoop=1;jettySize=auto;html=1;fontSize=18;" parent="1" source="NHk5KSPm33zJ3o6PW0oc-44" edge="1">
          <mxGeometry relative="1" as="geometry">
            <mxPoint x="530" y="640" as="targetPoint" />
            <Array as="points">
              <mxPoint x="530" y="480" />
              <mxPoint x="530" y="480" />
            </Array>
          </mxGeometry>
        </mxCell>
        <mxCell id="NHk5KSPm33zJ3o6PW0oc-44" value="API Gateway" style="rounded=0;whiteSpace=wrap;html=1;fontSize=12;" parent="1" vertex="1">
          <mxGeometry x="335" y="370" width="400" height="60" as="geometry" />
        </mxCell>
        <mxCell id="NHk5KSPm33zJ3o6PW0oc-47" value="АБС" style="text;html=1;strokeColor=none;fillColor=none;align=center;verticalAlign=middle;whiteSpace=wrap;rounded=0;fontStyle=1;fontSize=16;" parent="1" vertex="1">
          <mxGeometry x="-729" y="585" width="140" height="30" as="geometry" />
        </mxCell>
        <mxCell id="NHk5KSPm33zJ3o6PW0oc-30" value="СУБД&lt;br&gt;Oracle" style="shape=cylinder3;whiteSpace=wrap;html=1;boundedLbl=1;backgroundOutline=1;size=15;" parent="1" vertex="1">
          <mxGeometry x="-617" y="775" width="148" height="130" as="geometry" />
        </mxCell>
        <mxCell id="NHk5KSPm33zJ3o6PW0oc-37" style="edgeStyle=orthogonalEdgeStyle;rounded=0;orthogonalLoop=1;jettySize=auto;html=1;fontSize=16;" parent="1" source="NHk5KSPm33zJ3o6PW0oc-36" target="NHk5KSPm33zJ3o6PW0oc-74" edge="1">
          <mxGeometry relative="1" as="geometry" />
        </mxCell>
        <mxCell id="NHk5KSPm33zJ3o6PW0oc-85" style="edgeStyle=orthogonalEdgeStyle;rounded=0;orthogonalLoop=1;jettySize=auto;html=1;exitX=0.5;exitY=1;exitDx=0;exitDy=0;fontSize=12;" parent="1" source="NHk5KSPm33zJ3o6PW0oc-36" target="NHk5KSPm33zJ3o6PW0oc-30" edge="1">
          <mxGeometry relative="1" as="geometry" />
        </mxCell>
        <mxCell id="NHk5KSPm33zJ3o6PW0oc-36" value="Десктопное приложение на Delphi" style="rounded=0;whiteSpace=wrap;html=1;fontSize=16;" parent="1" vertex="1">
          <mxGeometry x="-809" y="635" width="160" height="100" as="geometry" />
        </mxCell>
        <mxCell id="NHk5KSPm33zJ3o6PW0oc-62" value="" style="shape=image;verticalLabelPosition=bottom;verticalAlign=top;imageAspect=0;aspect=fixed;image=data:image/svg+xml,PHN2ZyB4bWxucz0iaHR0cDovL3d3dy53My5vcmcvMjAwMC9zdmciIHdpZHRoPSIzMiIgaGVpZ2h0PSIzMiIgdmlld0JveD0iMCAwIDMyIDMyIiBmaWxsPSJub25lIj4mI3hhOzxwYXRoIGQ9Ik0wIDE2QzAgNy4xNjM0NCA3LjE2MzQ0IDAgMTYgMEMyNC44MzY2IDAgMzIgNy4xNjM0NCAzMiAxNkMzMiAyNC44MzY2IDI0LjgzNjYgMzIgMTYgMzJDNy4xNjM0NCAzMiAwIDI0LjgzNjYgMCAxNloiIGZpbGw9IiM1MjgyRkYiLz4mI3hhOzxwYXRoIGZpbGwtcnVsZT0iZXZlbm9kZCIgY2xpcC1ydWxlPSJldmVub2RkIiBkPSJNMTYgMjRWMjMuOTg3QzE1LjkwMTcgMjMuOTg3MyAxNS44MDQzIDIzLjk2ODEgMTUuNzEzNCAyMy45MzA3QzE1LjYyMjUgMjMuODkzMyAxNS41Mzk4IDIzLjgzODQgMTUuNDcwMSAyMy43NjlDMTUuNDAwNSAyMy42OTk2IDE1LjM0NTIgMjMuNjE3MiAxNS4zMDc0IDIzLjUyNjRDMTUuMjY5NiAyMy40MzU2IDE1LjI1MDEgMjMuMzM4MyAxNS4yNSAyMy4yNFYyMC43NkMxNS4yNSAyMC4zNDcgMTUuNTg1IDIwLjAxMyAxNiAyMC4wMTNDMTYuNDEzIDIwLjAxMyAxNi43NSAyMC4zNDcgMTYuNzUgMjAuNzZWMjIuNTQ3QzE4LjM1NTEgMjIuMzU5IDE5LjgzNTMgMjEuNTg4NiAyMC45MTAzIDIwLjM4MTlDMjEuOTg1MiAxOS4xNzUyIDIyLjU4IDE3LjYxNiAyMi41ODIgMTZDMjIuNTgyIDE0LjQ0IDIyLjAzMiAxMyAyMS4xMTggMTEuODY3QzIwLjkxNDEgMTEuOTU5MSAyMC42OTIzIDEyLjAwNDQgMjAuNDY4NiAxMS45OTk3QzIwLjI0NSAxMS45OTQ5IDIwLjAyNTMgMTEuOTQwMiAxOS44MjU1IDExLjgzOTVDMTkuNjI1NyAxMS43Mzg5IDE5LjQ1MSAxMS41OTQ4IDE5LjMxNDEgMTEuNDE3OUMxOS4xNzczIDExLjI0MSAxOS4wODE3IDExLjAzNTcgMTkuMDM0NCAxMC44MTdDMTguOTg3MSAxMC41OTg0IDE4Ljk4OTMgMTAuMzcyIDE5LjA0MDkgMTAuMTU0M0MxOS4wOTI0IDkuOTM2NjQgMTkuMTkyIDkuNzMzMjYgMTkuMzMyMyA5LjU1OTA1QzE5LjQ3MjcgOS4zODQ4NSAxOS42NTAyIDkuMjQ0MjMgMTkuODUxOCA5LjE0NzVDMjAuMDUzNSA5LjA1MDc3IDIwLjI3NDMgOS4wMDAzNyAyMC40OTggOUMyMC43MTI4IDguOTk5MTcgMjAuOTI1MyA5LjA0NDU4IDIxLjEyMSA5LjEzMzE1QzIxLjMxNjcgOS4yMjE3MiAyMS40OTExIDkuMzUxMzggMjEuNjMyMyA5LjUxMzMyQzIxLjc3MzQgOS42NzUyNSAyMS44NzgxIDkuODY1NjcgMjEuOTM5MSAxMC4wNzE2QzIyLjAwMDEgMTAuMjc3NiAyMi4wMTYxIDEwLjQ5NDMgMjEuOTg2IDEwLjcwN0MyMy4yODUyIDEyLjE2MzcgMjQuMDAxOSAxNC4wNDgxIDIzLjk5OSAxNkMyMy45OTkgMjAuNDEzIDIwLjQxNCAyNCAxNiAyNFpNOS44OCAyMS40MjdDOS44OCAyMS4zMzMgOS44ODYgMjEuMjUzIDkuOSAyMS4xNzNDOC42NzIyNCAxOS43MjkxIDcuOTk4NjkgMTcuODk1MyA4IDE2QzggMTEuNTg3IDExLjU4NSA4IDE1Ljk5OSA4VjguMDEzQzE2LjE5ODggOC4wMTU2MyAxNi4zODk2IDguMDk2ODYgMTYuNTMgOC4yMzkxQzE2LjY3MDMgOC4zODEzNSAxNi43NDkgOC41NzMxNiAxNi43NDkgOC43NzNWMTEuMjRDMTYuNzQ5IDExLjQzODkgMTYuNjcgMTEuNjI5NyAxNi41MjkzIDExLjc3MDNDMTYuMzg4NyAxMS45MTEgMTYuMTk3OSAxMS45OSAxNS45OTkgMTEuOTlDMTUuODAwMSAxMS45OSAxNS42MDkzIDExLjkxMSAxNS40Njg3IDExLjc3MDNDMTUuMzI4IDExLjYyOTcgMTUuMjQ5IDExLjQzODkgMTUuMjQ5IDExLjI0TDE1LjI0NyA5LjQ1M0MxMy42NDIxIDkuNjQxMDggMTIuMTYyMSAxMC40MTE1IDExLjA4NzUgMTEuNjE4M0MxMC4wMTI5IDEyLjgyNSA5LjQxODUxIDE0LjM4NDIgOS40MTcgMTZDOS40MTcgMTcuNTIgOS45MzMgMTguOTIgMTAuNzk5IDIwLjA0QzExLjAwMzkgMTkuOTUyNyAxMS4yMjU3IDE5LjkxMjIgMTEuNDQ4MiAxOS45MjEzQzExLjY3MDcgMTkuOTMwNCAxMS44ODg0IDE5Ljk4ODkgMTIuMDg1NSAyMC4wOTI3QzEyLjI4MjYgMjAuMTk2NCAxMi40NTQxIDIwLjM0MjcgMTIuNTg3NiAyMC41MjFDMTIuNzIxMSAyMC42OTkzIDEyLjgxMzIgMjAuOTA1MSAxMi44NTcyIDIxLjEyMzRDMTIuOTAxMyAyMS4zNDE3IDEyLjg5NjEgMjEuNTY3MSAxMi44NDIyIDIxLjc4MzJDMTIuNzg4MyAyMS45OTkzIDEyLjY4NjkgMjIuMjAwNiAxMi41NDU1IDIyLjM3MjdDMTIuNDA0IDIyLjU0NDcgMTIuMjI2IDIyLjY4MzEgMTIuMDI0NSAyMi43Nzc4QzExLjgyMjkgMjIuODcyNCAxMS42MDI3IDIyLjkyMSAxMS4zOCAyMi45MkMxMC45ODMxIDIyLjkyMDggMTAuNjAyMiAyMi43NjQgMTAuMzIwOSAyMi40ODRDMTAuMDM5NyAyMi4yMDQxIDkuODgxMDYgMjEuODIzOSA5Ljg4IDIxLjQyN1pNMTMuNSAxNkMxMy40OTQyIDE1LjY2NzYgMTMuNTU0OCAxNS4zMzczIDEzLjY3ODIgMTUuMDI4NkMxMy44MDE1IDE0LjcxOTggMTMuOTg1MyAxNC40Mzg4IDE0LjIxODYgMTQuMjAyQzE0LjQ1MTkgMTMuOTY1MSAxNC43MzAxIDEzLjc3NzEgMTUuMDM3IDEzLjY0OTFDMTUuMzQzOCAxMy41MjExIDE1LjY3MzEgMTMuNDU1NiAxNi4wMDU2IDEzLjQ1NjRDMTYuMzM4MSAxMy40NTcyIDE2LjY2NzEgMTMuNTI0MyAxNi45NzMzIDEzLjY1MzhDMTcuMjc5NSAxMy43ODMzIDE3LjU1NjkgMTMuOTcyNSAxNy43ODkgMTQuMjEwNUMxOC4wMjEyIDE0LjQ0ODUgMTguMjAzNiAxNC43MzA0IDE4LjMyNTUgMTUuMDM5N0MxOC40NDc0IDE1LjM0OTEgMTguNTA2NCAxNS42Nzk2IDE4LjQ5OSAxNi4wMTJDMTguNDg0NCAxNi42NjYzIDE4LjIxMzkgMTcuMjg4OCAxNy43NDU1IDE3Ljc0NThDMTcuMjc3IDE4LjIwMjggMTYuNjQ4MSAxOC40NTc5IDE1Ljk5MzYgMTguNDU2NEMxNS4zMzkyIDE4LjQ1NDggMTQuNzExNCAxOC4xOTY3IDE0LjI0NTIgMTcuNzM3NEMxMy43NzkgMTcuMjc4MSAxMy41MTE0IDE2LjY1NDMgMTMuNSAxNloiIGZpbGw9IndoaXRlIi8+JiN4YTs8L3N2Zz4=;fontSize=18;" parent="1" vertex="1">
          <mxGeometry x="440" y="384" width="32" height="32" as="geometry" />
        </mxCell>
        <mxCell id="NHk5KSPm33zJ3o6PW0oc-74" value="" style="rounded=1;whiteSpace=wrap;html=1;fontSize=18;" parent="1" vertex="1">
          <mxGeometry x="-250" y="739" width="310" height="160" as="geometry" />
        </mxCell>
        <mxCell id="NHk5KSPm33zJ3o6PW0oc-73" value="" style="shape=image;verticalLabelPosition=bottom;verticalAlign=top;imageAspect=0;aspect=fixed;image=data:image/svg+xml,PHN2ZyB4bWxucz0iaHR0cDovL3d3dy53My5vcmcvMjAwMC9zdmciIHdpZHRoPSIzMiIgaGVpZ2h0PSIzMiIgdmlld0JveD0iMCAwIDMyIDMyIiBmaWxsPSJub25lIj4mI3hhOzxwYXRoIGQ9Ik0wIDE2QzAgNy4xNjM0NCA3LjE2MzQ0IDAgMTYgMEMyNC44MzY2IDAgMzIgNy4xNjM0NCAzMiAxNkMzMiAyNC44MzY2IDI0LjgzNjYgMzIgMTYgMzJDNy4xNjM0NCAzMiAwIDI0LjgzNjYgMCAxNloiIGZpbGw9IiM1MjgyRkYiLz4mI3hhOzxwYXRoIGZpbGwtcnVsZT0iZXZlbm9kZCIgY2xpcC1ydWxlPSJldmVub2RkIiBkPSJNMTMuOTk5IDIzQzEzLjk5OSAyMi4xNiAxNC41MjIgMjEuNDQgMTUuMjYxIDIxLjE0N0MxNS4yNTMzIDIxLjA5ODQgMTUuMjQ5NyAyMS4wNDkyIDE1LjI1IDIxVjE4LjY0QzE1LjI1IDE4LjQ0IDE1LjMyODggMTguMjQ4IDE1LjQ2OTQgMTguMTA1OEMxNS42MSAxNy45NjM1IDE1LjgwMSAxNy44ODI0IDE2LjAwMSAxNy44OEMxNi4yMDA4IDE3Ljg4MjYgMTYuMzkxNiAxNy45NjM5IDE2LjUzMTkgMTguMTA2MUMxNi42NzIzIDE4LjI0ODQgMTYuNzUxIDE4LjQ0MDIgMTYuNzUxIDE4LjY0VjIxQzE2Ljc1MDMgMjEuMDQ5MyAxNi43NDU3IDIxLjA5ODUgMTYuNzM3IDIxLjE0N0MxNy4xNjc3IDIxLjMxOTQgMTcuNTI1MSAyMS42MzYzIDE3Ljc0NzcgMjIuMDQzM0MxNy45NzAzIDIyLjQ1MDQgMTguMDQ0MyAyMi45MjIyIDE3Ljk1NzEgMjMuMzc3OUMxNy44Njk4IDIzLjgzMzUgMTcuNjI2NiAyNC4yNDQ2IDE3LjI2OTQgMjQuNTQwNkMxNi45MTIxIDI0LjgzNjYgMTYuNDYyOSAyNC45OTkgMTUuOTk5IDI1QzE0Ljg5NSAyNSAxMy45OTkgMjQuMTA3IDEzLjk5OSAyM1pNNy45OTg5OSAyMUM3Ljk5ODk5IDE5Ljg5MyA4Ljg5NTk5IDE5IDkuOTk4OTkgMTlDMTAuMjQyIDE5IDEwLjQ3NyAxOS4wNCAxMC42OTMgMTkuMTJMMTEuODUzIDE3Ljg0QzExLjk4NjIgMTcuNjkzMSAxMi4xNzE1IDE3LjYwMzkgMTIuMzY5NCAxNy41OTE0QzEyLjU2NzMgMTcuNTc4OSAxMi43NjIzIDE3LjY0NCAxMi45MTMgMTcuNzczQzEzLjA2MDcgMTcuOTA3OCAxMy4xNDkzIDE4LjA5NTUgMTMuMTU5NiAxOC4yOTUyQzEzLjE2OTkgMTguNDk1IDEzLjEwMTEgMTguNjkwNyAxMi45NjggMTguODRMMTEuODAzIDIwLjEzM0MxMS45MzIxIDIwLjQwMzUgMTEuOTk4OCAyMC42OTk3IDExLjk5OCAyMC45OTk0QzExLjk5NzIgMjEuMjk5MiAxMS45MjkgMjEuNTk1IDExLjc5ODQgMjEuODY0OEMxMS42Njc5IDIyLjEzNDYgMTEuNDc4MyAyMi4zNzE3IDExLjI0MzcgMjIuNTU4M0MxMS4wMDkxIDIyLjc0NSAxMC43MzU2IDIyLjg3NjUgMTAuNDQzMyAyMi45NDMxQzEwLjE1MSAyMy4wMDk4IDkuODQ3NTIgMjMuMDA5OCA5LjU1NTIzIDIyLjk0MzNDOS4yNjI5MyAyMi44NzY3IDguOTg5MzUgMjIuNzQ1MyA4Ljc1NDczIDIyLjU1ODdDOC41MjAxIDIyLjM3MjEgOC4zMzA0NSAyMi4xMzUxIDguMTk5ODEgMjEuODY1M0M4LjA2OTE2IDIxLjU5NTUgOC4wMDA4NyAyMS4yOTk4IDcuOTk5OTkgMjFINy45OTg5OVpNMTkuOTk5IDIxQzE5Ljk5OSAyMC42NTMgMjAuMDgzIDIwLjMzMyAyMC4yMzUgMjAuMDUzTDE5LjM1MiAxOS4wNjdDMTkuMjI5NyAxOC45MTc2IDE5LjE2OTggMTguNzI2NyAxOS4xODQ3IDE4LjUzNDJDMTkuMTk5NiAxOC4zNDE3IDE5LjI4ODIgMTguMTYyNCAxOS40MzIgMTguMDMzNUMxOS41NzU4IDE3LjkwNDcgMTkuNzYzNyAxNy44MzYzIDE5Ljk1NjcgMTcuODQyNUMyMC4xNDk3IDE3Ljg0ODcgMjAuMzMyOCAxNy45MjkxIDIwLjQ2OCAxOC4wNjdMMjEuMzkgMTkuMDkzQzIxLjY2NDQgMTkuMDA3MyAyMS45NTQxIDE4Ljk4MTcgMjIuMjM5MyAxOS4wMTgxQzIyLjUyNDUgMTkuMDU0NSAyMi43OTg1IDE5LjE1MiAyMy4wNDI2IDE5LjMwNEMyMy4yODY2IDE5LjQ1NTkgMjMuNDk1MSAxOS42NTg3IDIzLjY1MzYgMTkuODk4NUMyMy44MTIyIDIwLjEzODQgMjMuOTE3MiAyMC40MDk2IDIzLjk2MTQgMjAuNjkzN0MyNC4wMDU2IDIwLjk3NzggMjMuOTg4IDIxLjI2OCAyMy45MDk4IDIxLjU0NDdDMjMuODMxNiAyMS44MjE0IDIzLjY5NDcgMjIuMDc3OSAyMy41MDgzIDIyLjI5NjhDMjMuMzIxOSAyMi41MTU4IDIzLjA5MDUgMjIuNjkxOSAyMi44Mjk5IDIyLjgxMzNDMjIuNTY5MiAyMi45MzQ2IDIyLjI4NTUgMjIuOTk4MyAyMS45OTggMjNDMjAuODk0IDIzIDE5Ljk5OCAyMi4xMDcgMTkuOTk4IDIxSDE5Ljk5OVpNMTEuOTk5IDE1QzExLjk5OSAxNC43MzczIDEyLjA1MDggMTQuNDc3MSAxMi4xNTEzIDE0LjIzNDRDMTIuMjUxOSAxMy45OTE3IDEyLjM5OTMgMTMuNzcxMiAxMi41ODUxIDEzLjU4NTRDMTIuNzcxIDEzLjM5OTcgMTIuOTkxNiAxMy4yNTI0IDEzLjIzNDMgMTMuMTUyQzEzLjQ3NzEgMTMuMDUxNSAxMy43MzczIDEyLjk5OTkgMTQgMTNIMTQuMDQ2QzE0LjE2MDkgMTIuNDM1IDE0LjQ2NzggMTEuOTI3MSAxNC45MTQ2IDExLjU2MjZDMTUuMzYxMyAxMS4xOTgxIDE1LjkyMDQgMTAuOTk5MyAxNi40OTcgMTFDMTcuMTU5IDEwLjk5OTcgMTcuNzk0MSAxMS4yNjIxIDE4LjI2MjkgMTEuNzI5NEMxOC43MzE4IDEyLjE5NjggMTguOTk2MSAxMi44MzEgMTguOTk4IDEzLjQ5M0wxOC45OTcgMTMuNTJDMTkuMDggMTMuNTA3IDE5LjE2NCAxMy41MDcgMTkuMjQ5IDEzLjUwN0MyMC4yMTQgMTMuNTA3IDIwLjk5OSAxNC4yOCAyMC45OTkgMTUuMjUzQzIwLjk5ODIgMTUuNzE1NCAyMC44MTQ0IDE2LjE1ODcgMjAuNDg3OSAxNi40ODZDMjAuMTYxMyAxNi44MTM0IDE5LjcxODQgMTYuOTk4MiAxOS4yNTYgMTdIMTRDMTMuNDY5NiAxNyAxMi45NjA5IDE2Ljc4OTMgMTIuNTg1OCAxNi40MTQyQzEyLjIxMDcgMTYuMDM5MSAxMiAxNS41MzA0IDEyIDE1SDExLjk5OVpNMTAuNzA2IDEzLjAyN0w5LjY3Mjk5IDExLjk4N0M5LjYxNTk5IDEyIDkuNTU3OTkgMTIgOS41MDA5OSAxMkM4LjY3Mjk5IDEyIDguMDAwOTkgMTEuMzMzIDguMDAwOTkgMTAuNDkzQzguMDAwOTkgOS42NjcwMSA4LjY3Mjk5IDkuMDAwMDEgOS41MDA5OSA5LjAwMDAxQzkuNzEzNDQgOC45OTkyNSA5LjkyMzYgOS4wNDM3NCAxMC4xMTc1IDkuMTMwNTNDMTAuMzExNCA5LjIxNzMyIDEwLjQ4NDYgOS4zNDQ0MSAxMC42MjU2IDkuNTAzMzVDMTAuNzY2NSA5LjY2MjI5IDEwLjg3MiA5Ljg0OTQzIDEwLjkzNSAxMC4wNTIzQzEwLjk5ODEgMTAuMjU1MiAxMS4wMTcxIDEwLjQ2OTIgMTAuOTkxIDEwLjY4TDEyLjAyMSAxMS43MDdDMTIuMTk1MiAxMS44ODI1IDEyLjI5MjkgMTIuMTE5OCAxMi4yOTI5IDEyLjM2N0MxMi4yOTI5IDEyLjYxNDMgMTIuMTk1MiAxMi44NTE1IDEyLjAyMSAxMy4wMjdDMTEuODQ1NyAxMy4xOTk3IDExLjYwOTUgMTMuMjk2NCAxMS4zNjM1IDEzLjI5NjRDMTEuMTE3NSAxMy4yOTY0IDEwLjg4MTMgMTMuMTk5NyAxMC43MDYgMTMuMDI3Wk0yMCAxMUMyMCAxMC40Njk2IDIwLjIxMDcgOS45NjA4NyAyMC41ODU4IDkuNTg1OEMyMC45NjA5IDkuMjEwNzIgMjEuNDY5NiA5LjAwMDAxIDIyIDkuMDAwMDFDMjIuNTMwNCA5LjAwMDAxIDIzLjAzOTEgOS4yMTA3MiAyMy40MTQyIDkuNTg1OEMyMy43ODkzIDkuOTYwODcgMjQgMTAuNDY5NiAyNCAxMUMyNCAxMS41MzA0IDIzLjc4OTMgMTIuMDM5MSAyMy40MTQyIDEyLjQxNDJDMjMuMDM5MSAxMi43ODkzIDIyLjUzMDQgMTMgMjIgMTNDMjEuNDY5NiAxMyAyMC45NjA5IDEyLjc4OTMgMjAuNTg1OCAxMi40MTQyQzIwLjIxMDcgMTIuMDM5MSAyMCAxMS41MzA0IDIwIDExWiIgZmlsbD0id2hpdGUiLz4mI3hhOzwvc3ZnPg==;fontSize=18;" parent="1" vertex="1">
          <mxGeometry x="-164" y="743" width="32" height="32" as="geometry" />
        </mxCell>
        <mxCell id="NHk5KSPm33zJ3o6PW0oc-80" style="edgeStyle=orthogonalEdgeStyle;rounded=0;orthogonalLoop=1;jettySize=auto;html=1;fontSize=12;" parent="1" source="NHk5KSPm33zJ3o6PW0oc-78" target="NHk5KSPm33zJ3o6PW0oc-83" edge="1">
          <mxGeometry relative="1" as="geometry">
            <Array as="points" />
          </mxGeometry>
        </mxCell>
        <mxCell id="2qpmQN4yFpRF_TmIUa1L-11" style="edgeStyle=orthogonalEdgeStyle;rounded=0;orthogonalLoop=1;jettySize=auto;html=1;exitX=0.5;exitY=0;exitDx=0;exitDy=0;entryX=1;entryY=0.75;entryDx=0;entryDy=0;" parent="1" source="NHk5KSPm33zJ3o6PW0oc-78" target="2qpmQN4yFpRF_TmIUa1L-10" edge="1">
          <mxGeometry relative="1" as="geometry" />
        </mxCell>
        <mxCell id="NHk5KSPm33zJ3o6PW0oc-78" value="Микросервис работы с депозитами&lt;br style=&quot;border-color: var(--border-color);&quot;&gt;.Net" style="shape=hexagon;perimeter=hexagonPerimeter2;whiteSpace=wrap;html=1;fixedSize=1;fontSize=12;" parent="1" vertex="1">
          <mxGeometry x="370" y="770" width="160" height="110" as="geometry" />
        </mxCell>
        <mxCell id="NHk5KSPm33zJ3o6PW0oc-76" style="edgeStyle=orthogonalEdgeStyle;rounded=0;orthogonalLoop=1;jettySize=auto;html=1;fontSize=18;entryX=1;entryY=0.5;entryDx=0;entryDy=0;startArrow=classic;startFill=1;" parent="1" source="NHk5KSPm33zJ3o6PW0oc-78" target="NHk5KSPm33zJ3o6PW0oc-74" edge="1">
          <mxGeometry relative="1" as="geometry">
            <mxPoint x="-390" y="740" as="sourcePoint" />
            <mxPoint x="140" y="820" as="targetPoint" />
            <Array as="points">
              <mxPoint x="255" y="825" />
              <mxPoint x="255" y="820" />
              <mxPoint x="140" y="820" />
              <mxPoint x="140" y="819" />
            </Array>
          </mxGeometry>
        </mxCell>
        <mxCell id="NHk5KSPm33zJ3o6PW0oc-83" value="MS SQL" style="shape=cylinder3;whiteSpace=wrap;html=1;boundedLbl=1;backgroundOutline=1;size=15;fontSize=12;" parent="1" vertex="1">
          <mxGeometry x="595" y="780" width="120" height="130" as="geometry" />
        </mxCell>
        <mxCell id="NHk5KSPm33zJ3o6PW0oc-86" value="Kafka" style="text;html=1;strokeColor=none;fillColor=none;align=center;verticalAlign=middle;whiteSpace=wrap;rounded=0;fontStyle=1;fontSize=16;" parent="1" vertex="1">
          <mxGeometry x="-164" y="740" width="140" height="30" as="geometry" />
        </mxCell>
        <mxCell id="NHk5KSPm33zJ3o6PW0oc-90" value="Очередь заявок&lt;br&gt;на депозиты" style="rounded=0;whiteSpace=wrap;html=1;fontSize=12;" parent="1" vertex="1">
          <mxGeometry x="-240" y="790" width="120" height="60" as="geometry" />
        </mxCell>
        <mxCell id="NHk5KSPm33zJ3o6PW0oc-91" value="Очередь обновления данных по ставкам" style="rounded=0;whiteSpace=wrap;html=1;fontSize=12;" parent="1" vertex="1">
          <mxGeometry x="-83" y="789" width="120" height="60" as="geometry" />
        </mxCell>
        <mxCell id="2qpmQN4yFpRF_TmIUa1L-4" value="Сервис по работе с депозитами" style="text;html=1;strokeColor=none;fillColor=none;align=center;verticalAlign=middle;whiteSpace=wrap;rounded=0;fontStyle=1;fontSize=16;" parent="1" vertex="1">
          <mxGeometry x="426" y="655" width="190" height="30" as="geometry" />
        </mxCell>
        <mxCell id="2qpmQN4yFpRF_TmIUa1L-10" value="SMS шлюз" style="rounded=1;whiteSpace=wrap;html=1;absoluteArcSize=1;arcSize=14;strokeWidth=2;" parent="1" vertex="1">
          <mxGeometry x="346" y="670" width="80" height="60" as="geometry" />
        </mxCell>
        <mxCell id="V2mrgXFyR8KAxn0kKlGp-1" value="" style="image;sketch=0;aspect=fixed;html=1;points=[];align=center;fontSize=12;image=img/lib/mscae/Cache_Redis_Product.svg;" vertex="1" parent="1">
          <mxGeometry x="-605" y="37.56" width="50" height="42" as="geometry" />
        </mxCell>
        <mxCell id="V2mrgXFyR8KAxn0kKlGp-2" style="edgeStyle=orthogonalEdgeStyle;rounded=0;orthogonalLoop=1;jettySize=auto;html=1;exitX=0.5;exitY=0;exitDx=0;exitDy=0;exitPerimeter=0;entryX=0.496;entryY=1.029;entryDx=0;entryDy=0;entryPerimeter=0;startArrow=classic;startFill=1;" edge="1" parent="1" source="NHk5KSPm33zJ3o6PW0oc-39" target="V2mrgXFyR8KAxn0kKlGp-1">
          <mxGeometry relative="1" as="geometry" />
        </mxCell>
        <mxCell id="V2mrgXFyR8KAxn0kKlGp-3" value="" style="rounded=1;whiteSpace=wrap;html=1;fillColor=#f5f5f5;strokeColor=#666666;fontColor=#333333;" vertex="1" parent="1">
          <mxGeometry x="-815" y="-209.94" width="260" height="175" as="geometry" />
        </mxCell>
        <mxCell id="V2mrgXFyR8KAxn0kKlGp-4" value="&lt;span style=&quot;font-size: 12px;&quot;&gt;SFTP&lt;/span&gt;&lt;div&gt;&lt;span style=&quot;font-size: 12px;&quot;&gt;server&lt;/span&gt;&lt;/div&gt;" style="rounded=0;whiteSpace=wrap;html=1;fontSize=16;" vertex="1" parent="1">
          <mxGeometry x="-795" y="-149.94" width="100" height="80" as="geometry" />
        </mxCell>
        <mxCell id="V2mrgXFyR8KAxn0kKlGp-5" value="Партнерский колл-центр" style="text;html=1;strokeColor=none;fillColor=none;align=center;verticalAlign=middle;whiteSpace=wrap;rounded=0;fontStyle=1;fontSize=16;" vertex="1" parent="1">
          <mxGeometry x="-750" y="-199.94" width="140" height="30" as="geometry" />
        </mxCell>
        <mxCell id="V2mrgXFyR8KAxn0kKlGp-7" style="edgeStyle=orthogonalEdgeStyle;rounded=0;orthogonalLoop=1;jettySize=auto;html=1;exitX=0.5;exitY=0;exitDx=0;exitDy=0;entryX=1;entryY=0.25;entryDx=0;entryDy=0;" edge="1" parent="1" source="V2mrgXFyR8KAxn0kKlGp-6" target="V2mrgXFyR8KAxn0kKlGp-3">
          <mxGeometry relative="1" as="geometry" />
        </mxCell>
        <mxCell id="V2mrgXFyR8KAxn0kKlGp-6" value="&lt;b&gt;&lt;font style=&quot;font-size: 13px;&quot;&gt;Call Balanser&lt;/font&gt;&lt;/b&gt;&lt;div&gt;(балансировщик нагрузки звонков )&lt;/div&gt;" style="rounded=1;whiteSpace=wrap;html=1;absoluteArcSize=1;arcSize=14;strokeWidth=2;fillColor=#dae8fc;strokeColor=#6c8ebf;" vertex="1" parent="1">
          <mxGeometry x="-400" y="-92.44" width="120" height="100" as="geometry" />
        </mxCell>
        <mxCell id="V2mrgXFyR8KAxn0kKlGp-8" style="edgeStyle=orthogonalEdgeStyle;rounded=0;orthogonalLoop=1;jettySize=auto;html=1;exitX=0.5;exitY=1;exitDx=0;exitDy=0;entryX=0.988;entryY=0.202;entryDx=0;entryDy=0;entryPerimeter=0;" edge="1" parent="1" source="V2mrgXFyR8KAxn0kKlGp-6" target="NHk5KSPm33zJ3o6PW0oc-27">
          <mxGeometry relative="1" as="geometry" />
        </mxCell>
        <mxCell id="V2mrgXFyR8KAxn0kKlGp-11" value="&lt;span style=&quot;font-size: 11px; background-color: rgb(255, 255, 255);&quot;&gt;Передача файла со ставками&amp;nbsp;&lt;/span&gt;&lt;div&gt;&lt;span style=&quot;font-size: 11px; background-color: rgb(255, 255, 255);&quot;&gt;по протокому SFTP&lt;/span&gt;&lt;/div&gt;" style="text;html=1;align=center;verticalAlign=middle;resizable=0;points=[];autosize=1;strokeColor=none;fillColor=none;" vertex="1" parent="1">
          <mxGeometry x="-1310" y="453" width="180" height="40" as="geometry" />
        </mxCell>
        <mxCell id="V2mrgXFyR8KAxn0kKlGp-12" value="Предложение персональный условий&amp;nbsp;" style="edgeLabel;html=1;align=center;verticalAlign=middle;resizable=0;points=[];" vertex="1" connectable="0" parent="1">
          <mxGeometry x="-164.00245665164707" y="180" as="geometry">
            <mxPoint x="-122" y="-78" as="offset" />
          </mxGeometry>
        </mxCell>
        <mxCell id="V2mrgXFyR8KAxn0kKlGp-14" value="&lt;div&gt;&lt;br&gt;&lt;/div&gt;Чтение новых заявок на&amp;nbsp;&lt;div&gt;депозиты +&amp;nbsp;&lt;/div&gt;&lt;div&gt;Запись ставок на депозиты&amp;nbsp;&lt;/div&gt;" style="edgeLabel;html=1;align=center;verticalAlign=middle;resizable=0;points=[];" vertex="1" connectable="0" parent="1">
          <mxGeometry x="250" y="830" as="geometry">
            <mxPoint x="-45" y="-16" as="offset" />
          </mxGeometry>
        </mxCell>
        <mxCell id="V2mrgXFyR8KAxn0kKlGp-15" value="Запись новых заявок на&amp;nbsp;&lt;div&gt;депозиты&amp;nbsp;&lt;/div&gt;" style="edgeLabel;html=1;align=center;verticalAlign=middle;resizable=0;points=[];" vertex="1" connectable="0" parent="1">
          <mxGeometry x="10" y="721" as="geometry">
            <mxPoint x="-307" y="-40" as="offset" />
          </mxGeometry>
        </mxCell>
      </root>
    </mxGraphModel>
  </diagram>
</mxfile>
